<?xml version="1.0" encoding="UTF-8"?>
<svg id="Layer_2" data-name="Layer 2" xmlns="http://www.w3.org/2000/svg" viewBox="0 0 107.4 117.2">
  <defs>
    <style>
      .cls-1, .cls-2, .cls-3, .cls-4 {
        stroke: #000;
        stroke-miterlimit: 10;
      }

      .cls-2 {
        fill: #e08d5b;
      }

      .cls-3 {
        fill: #aa4a44;
      }

      .cls-4 {
        fill: silver;
      }
    </style>
  </defs>
  <g id="Layer_1-2" data-name="Layer 1">
    <g>
      <path class="cls-4" d="M62.06,58.6L105.56,10.38c1.96-2.17,1.75-5.48-.47-7.4l-1.36-1.18c-2.22-1.91-5.61-1.71-7.56.46l-42.46,47.06L11.24,2.27C9.28.1,5.9-.1,3.68,1.81l-1.36,1.18C.09,4.9-.12,8.21,1.84,10.38l43.5,48.22C28.23,82.48,4.17,127.15,1.84,106.82c-1.96,2.17-1.75,5.48.47,7.4l1.36,1.18c2.22,1.91,5.61,1.71,7.56-.46l42.46-47.06,42.46,47.06c1.96,2.17,5.34,2.38,7.56.46l1.36-1.18c2.22-1.91,2.43-5.23.47-7.4-1.78,20.32-25.48-22.09-43.5-48.22Z"/>
      <path class="cls-1" d="M66.53,63.55l-9.32,8.04s-.11.03-.15,0L2.44,11.05C.15,8.51.4,4.64,3,2.4h0C5.59.16,9.55.4,11.84,2.94l54.68,60.61Z"/>
      <path class="cls-1" d="M41.04,63.36l9.4,8.11L105.56,10.38c1.96-2.17,1.75-5.48-.47-7.4l-1.36-1.18c-2.22-1.91-5.61-1.71-7.56.46l-55.11,61.09Z"/>
    </g>
    <g>
      <ellipse class="cls-2" cx="27.66" cy="43.79" rx="8.43" ry="11.94"/>
      <ellipse class="cls-2" cx="79.89" cy="43.79" rx="8.43" ry="11.94"/>
      <ellipse class="cls-2" cx="63.03" cy="31.86" rx="8.43" ry="11.94"/>
      <ellipse class="cls-2" cx="44.52" cy="31.86" rx="8.43" ry="11.94"/>
      <path class="cls-2" d="M66.06,56.77c-.12,0-.24,0-.36,0,0,0,0,0,0,0-7.46-9.7-5.49-12.88-12.27-12.98-5.22-.08-6.03,4.33-12.27,12.98,0,0,0,0,0,0-8.95.16-16.15,6.75-16.15,14.85s7.38,14.85,16.48,14.85c4.88,0,9.26-4.92,12.29-4.96s7.4,4.96,12.29,4.96c9.1,0,16.48-6.65,16.48-14.85s-7.38-14.85-16.48-14.85Z"/>
      <ellipse class="cls-3" cx="27.66" cy="43.79" rx="4.09" ry="6.44"/>
      <ellipse class="cls-3" cx="79.89" cy="43.79" rx="4.09" ry="6.44"/>
      <ellipse class="cls-3" cx="63.03" cy="31.86" rx="4.09" ry="6.44"/>
      <ellipse class="cls-3" cx="44.52" cy="31.86" rx="4.09" ry="6.44"/>
      <path class="cls-3" d="M59.47,62.83c0-5.48-2.68-9.92-5.98-9.92s-5.98,4.44-5.98,9.92c0,.01,0,.03,0,.04-.35-.03-.71-.04-1.07-.04-6.1,0-11.04,3.88-11.04,8.67s4.94,8.67,11.04,8.67c2.44,0,4.69-.62,6.52-1.67,1.83,1.05,4.08,1.67,6.52,1.67,6.1,0,11.04-3.88,11.04-8.67s-4.94-8.67-11.04-8.67Z"/>
    </g>
  </g>
</svg>