<?xml version="1.0" encoding="UTF-8"?>
<svg id="Layer_2" data-name="Layer 2" xmlns="http://www.w3.org/2000/svg" viewBox="0 0 236.36 178.65">
  <defs>
    <style>
      .cls-1 {
        font-family: OneWayOrAnother, 'One Way Or Another';
        font-size: 33.44px;
      }

      .cls-2, .cls-3, .cls-4, .cls-5 {
        stroke: #000;
        stroke-miterlimit: 10;
      }

      .cls-3 {
        fill: #e08d5b;
      }

      .cls-4 {
        fill: #aa4a44;
      }

      .cls-5 {
        fill: silver;
      }
    </style>
  </defs>
  <g id="Layer_1-2" data-name="Layer 1">
    <g>
      <g>
        <path class="cls-5" d="M126.54,58.6l43.5-48.22c1.96-2.17,1.75-5.48-.47-7.4l-1.36-1.18c-2.22-1.91-5.61-1.71-7.56.46l-42.46,47.06L75.72,2.27c-1.96-2.17-5.34-2.38-7.56-.46l-1.36,1.18c-2.22,1.91-2.43,5.23-.47,7.4l43.5,48.22c-17.11,23.88-41.17,68.55-43.5,48.22-1.96,2.17-1.75,5.48.47,7.4l1.36,1.18c2.22,1.91,5.61,1.71,7.56-.46l42.46-47.06,42.46,47.06c1.96,2.17,5.34,2.38,7.56.46l1.36-1.18c2.22-1.91,2.43-5.23.47-7.4-1.78,20.32-25.48-22.09-43.5-48.22Z"/>
        <path class="cls-2" d="M131.01,63.55l-9.32,8.04s-.11.03-.15,0L66.92,11.05c-2.29-2.54-2.04-6.41.55-8.65h0c2.6-2.24,6.56-2,8.85.54l54.68,60.61Z"/>
        <path class="cls-2" d="M105.53,63.36l9.4,8.11,55.11-61.09c1.96-2.17,1.75-5.48-.47-7.4l-1.36-1.18c-2.22-1.91-5.61-1.71-7.56.46l-55.11,61.09Z"/>
      </g>
      <g>
        <ellipse class="cls-3" cx="91.31" cy="43.79" rx="8.43" ry="11.94"/>
        <ellipse class="cls-3" cx="143.54" cy="43.79" rx="8.43" ry="11.94"/>
        <ellipse class="cls-3" cx="126.68" cy="31.86" rx="8.43" ry="11.94"/>
        <ellipse class="cls-3" cx="108.17" cy="31.86" rx="8.43" ry="11.94"/>
        <path class="cls-3" d="M129.71,56.77c-.12,0-.24,0-.36,0,0,0,0,0,0,0-7.46-9.7-5.49-12.88-12.27-12.98-5.22-.08-6.03,4.33-12.27,12.98,0,0,0,0,0,0-8.95.16-16.15,6.75-16.15,14.85s7.38,14.85,16.48,14.85c4.88,0,9.26-4.92,12.29-4.96s7.4,4.96,12.29,4.96c9.1,0,16.48-6.65,16.48-14.85s-7.38-14.85-16.48-14.85Z"/>
        <ellipse class="cls-4" cx="91.31" cy="43.79" rx="4.09" ry="6.44"/>
        <ellipse class="cls-4" cx="143.54" cy="43.79" rx="4.09" ry="6.44"/>
        <ellipse class="cls-4" cx="126.68" cy="31.86" rx="4.09" ry="6.44"/>
        <ellipse class="cls-4" cx="108.17" cy="31.86" rx="4.09" ry="6.44"/>
        <path class="cls-4" d="M123.12,62.83c0-5.48-2.68-9.92-5.98-9.92s-5.98,4.44-5.98,9.92c0,.01,0,.03,0,.04-.35-.03-.71-.04-1.07-.04-6.1,0-11.04,3.88-11.04,8.67s4.94,8.67,11.04,8.67c2.44,0,4.69-.62,6.52-1.67,1.83,1.05,4.08,1.67,6.52,1.67,6.1,0,11.04-3.88,11.04-8.67s-4.94-8.67-11.04-8.67Z"/>
      </g>
      <text class="cls-1" transform="translate(7.41 152.29) scale(.94 1)"><tspan x="0" y="0">Pawfect Knit</tspan></text>
    </g>
  </g>
</svg>